<?xml version="1.0" encoding="utf-8" standalone="no"?><!DOCTYPE svg PUBLIC "-//W3C//DTD SVG 1.1//EN" "http://www.w3.org/Graphics/SVG/1.1/DTD/svg11.dtd">
<svg preserveAspectRatio="xMinYMin meet" width="100%" height="100%" viewBox="0 0 560.000 420.000"  version="1.1" xmlns="http://www.w3.org/2000/svg" xmlns:xlink="http://www.w3.org/1999/xlink">
  <desc>Matlab Figure Converted by PLOT2SVG written by Juerg Schwizer</desc>
  <g id="topgroup">
  <rect x="0" y="0" width="560.000" height="420.000" fill="#ffffff" stroke="none" />
  <g id ="ID000000">
  <clipPath id="ID000001">
    <rect x="72.800" y="31.500" width="434.000" height="342.300"/>
  </clipPath>
      <polygon fill="#ffffff" fill-opacity="1.00" stroke="none" stroke-width="1.0pt" stroke-opacity="1.00" stroke-dasharray="none" points="72.800,373.800 506.800,373.800 506.800,31.500 72.800,31.500 "/>
      <polygon fill="#ffffff" fill-opacity="1.00" stroke="none" stroke-width="1.0pt" stroke-opacity="1.00" stroke-dasharray="none" points="72.800,31.500 506.800,31.500 506.800,31.500 72.800,31.500 "/>
      <polygon fill="#ffffff" fill-opacity="1.00" stroke="none" stroke-width="1.0pt" stroke-opacity="1.00" stroke-dasharray="none" points="72.800,373.800 72.800,373.800 72.800,31.500 72.800,31.500 "/>
    <g>
<g id="ID000002" clip-path="url(#ID000001)" >
      <polyline fill="none" stroke="#0000ff" stroke-width="2.0pt" stroke-dasharray="none" points="72.800,373.797 145.133,314.256 217.467,283.301 289.800,269.718 362.133,245.547 434.467,208.000 506.800,183.421 "/>
<g>
</g>
</g>
<g id="ID000003" clip-path="url(#ID000001)" >
      <polyline fill="none" stroke="#ff0000" stroke-width="2.0pt" stroke-dasharray="none" points="72.800,270.091 145.133,251.118 217.467,219.737 289.800,205.318 362.133,179.031 434.467,136.663 506.800,122.142 "/>
<g>
</g>
</g>
<g id="ID000004" clip-path="url(#ID000001)" >
      <polyline fill="none" stroke="#000000" stroke-width="2.0pt" stroke-dasharray="none" points="72.800,345.823 145.133,319.397 217.467,284.738 289.800,223.758 362.133,174.304 434.467,126.864 506.800,63.979 "/>
<g>
</g>
</g>
<g id="ID000005" >
  <g transform="translate(289.300,409.569)">
    <g transform="rotate(-0.0)">
      <text x="0.000" y="0.000" font-family="Helvetica" text-anchor="middle" font-size="15pt" fill="#000000" >x</text>
    </g>
  </g>
</g>
<g id="ID000006" >
  <g transform="translate(52.550,204.151)">
    <g transform="rotate(-90.0)">
      <text x="0.000" y="0.000" font-family="Helvetica" text-anchor="middle" font-size="15pt" fill="#000000" >y</text>
    </g>
  </g>
</g>
<g id="ID000007" >
  <g transform="translate(289.300,23.246)">
    <g transform="rotate(-0.0)">
      <text x="0.000" y="0.000" font-family="Helvetica" text-anchor="middle" font-size="15pt" fill="#000000" >t</text>
    </g>
  </g>
</g>
<g id="ID000008" >
</g>
<g id="ID000009" >
</g>
    </g>
    <g>
      <polyline fill="none" stroke="#000000" stroke-width="1.0pt" stroke-dasharray="none" points="145.133,373.800 145.133,369.460 "/>
      <polyline fill="none" stroke="#000000" stroke-width="1.0pt" stroke-dasharray="none" points="217.467,373.800 217.467,369.460 "/>
      <polyline fill="none" stroke="#000000" stroke-width="1.0pt" stroke-dasharray="none" points="289.800,373.800 289.800,369.460 "/>
      <polyline fill="none" stroke="#000000" stroke-width="1.0pt" stroke-dasharray="none" points="362.133,373.800 362.133,369.460 "/>
      <polyline fill="none" stroke="#000000" stroke-width="1.0pt" stroke-dasharray="none" points="434.467,373.800 434.467,369.460 "/>
      <polyline fill="none" stroke="#000000" stroke-width="1.0pt" stroke-dasharray="none" points="72.800,373.800 506.800,373.800 "/>
      <polyline fill="none" stroke="#000000" stroke-width="1.0pt" stroke-dasharray="none" points="145.133,31.500 145.133,35.840 "/>
      <polyline fill="none" stroke="#000000" stroke-width="1.0pt" stroke-dasharray="none" points="217.467,31.500 217.467,35.840 "/>
      <polyline fill="none" stroke="#000000" stroke-width="1.0pt" stroke-dasharray="none" points="289.800,31.500 289.800,35.840 "/>
      <polyline fill="none" stroke="#000000" stroke-width="1.0pt" stroke-dasharray="none" points="362.133,31.500 362.133,35.840 "/>
      <polyline fill="none" stroke="#000000" stroke-width="1.0pt" stroke-dasharray="none" points="434.467,31.500 434.467,35.840 "/>
      <polyline fill="none" stroke="#000000" stroke-width="1.0pt" stroke-dasharray="none" points="72.800,31.500 506.800,31.500 "/>
  <g transform="translate(72.800,410.146)">
    <g transform="rotate(-0.0)">
      <text x="0.000" y="0.000" font-family="Helvetica" text-anchor="middle" font-size="25pt" fill="#000000" >1</text>
    </g>
  </g>
  <g transform="translate(145.133,410.146)">
    <g transform="rotate(-0.0)">
      <text x="0.000" y="0.000" font-family="Helvetica" text-anchor="middle" font-size="25pt" fill="#000000" >2</text>
    </g>
  </g>
  <g transform="translate(217.467,410.146)">
    <g transform="rotate(-0.0)">
      <text x="0.000" y="0.000" font-family="Helvetica" text-anchor="middle" font-size="25pt" fill="#000000" >3</text>
    </g>
  </g>
  <g transform="translate(289.800,410.146)">
    <g transform="rotate(-0.0)">
      <text x="0.000" y="0.000" font-family="Helvetica" text-anchor="middle" font-size="25pt" fill="#000000" >4</text>
    </g>
  </g>
  <g transform="translate(362.133,410.146)">
    <g transform="rotate(-0.0)">
      <text x="0.000" y="0.000" font-family="Helvetica" text-anchor="middle" font-size="25pt" fill="#000000" >5</text>
    </g>
  </g>
  <g transform="translate(434.467,410.146)">
    <g transform="rotate(-0.0)">
      <text x="0.000" y="0.000" font-family="Helvetica" text-anchor="middle" font-size="25pt" fill="#000000" >6</text>
    </g>
  </g>
  <g transform="translate(506.800,410.146)">
    <g transform="rotate(-0.0)">
      <text x="0.000" y="0.000" font-family="Helvetica" text-anchor="middle" font-size="25pt" fill="#000000" >7</text>
    </g>
  </g>
      <polyline fill="none" stroke="#000000" stroke-width="1.0pt" stroke-dasharray="none" points="72.800,331.012 77.140,331.012 "/>
      <polyline fill="none" stroke="#000000" stroke-width="1.0pt" stroke-dasharray="none" points="72.800,288.225 77.140,288.225 "/>
      <polyline fill="none" stroke="#000000" stroke-width="1.0pt" stroke-dasharray="none" points="72.800,245.438 77.140,245.438 "/>
      <polyline fill="none" stroke="#000000" stroke-width="1.0pt" stroke-dasharray="none" points="72.800,202.650 77.140,202.650 "/>
      <polyline fill="none" stroke="#000000" stroke-width="1.0pt" stroke-dasharray="none" points="72.800,159.863 77.140,159.863 "/>
      <polyline fill="none" stroke="#000000" stroke-width="1.0pt" stroke-dasharray="none" points="72.800,117.075 77.140,117.075 "/>
      <polyline fill="none" stroke="#000000" stroke-width="1.0pt" stroke-dasharray="none" points="72.800,74.288 77.140,74.288 "/>
      <polyline fill="none" stroke="#000000" stroke-width="1.0pt" stroke-dasharray="none" points="72.800,373.800 72.800,31.500 "/>
      <polyline fill="none" stroke="#000000" stroke-width="1.0pt" stroke-dasharray="none" points="506.800,331.012 502.460,331.012 "/>
      <polyline fill="none" stroke="#000000" stroke-width="1.0pt" stroke-dasharray="none" points="506.800,288.225 502.460,288.225 "/>
      <polyline fill="none" stroke="#000000" stroke-width="1.0pt" stroke-dasharray="none" points="506.800,245.438 502.460,245.438 "/>
      <polyline fill="none" stroke="#000000" stroke-width="1.0pt" stroke-dasharray="none" points="506.800,202.650 502.460,202.650 "/>
      <polyline fill="none" stroke="#000000" stroke-width="1.0pt" stroke-dasharray="none" points="506.800,159.863 502.460,159.863 "/>
      <polyline fill="none" stroke="#000000" stroke-width="1.0pt" stroke-dasharray="none" points="506.800,117.075 502.460,117.075 "/>
      <polyline fill="none" stroke="#000000" stroke-width="1.0pt" stroke-dasharray="none" points="506.800,74.288 502.460,74.288 "/>
      <polyline fill="none" stroke="#000000" stroke-width="1.0pt" stroke-dasharray="none" points="506.800,373.800 506.800,31.500 "/>
  <g transform="translate(64.120,385.050)">
    <g transform="rotate(-0.0)">
      <text x="0.000" y="0.000" font-family="Helvetica" text-anchor="end" font-size="25pt" fill="#000000" >0</text>
    </g>
  </g>
  <g transform="translate(64.120,342.262)">
    <g transform="rotate(-0.0)">
      <text x="0.000" y="0.000" font-family="Helvetica" text-anchor="end" font-size="25pt" fill="#000000" >1</text>
    </g>
  </g>
  <g transform="translate(64.120,299.475)">
    <g transform="rotate(-0.0)">
      <text x="0.000" y="0.000" font-family="Helvetica" text-anchor="end" font-size="25pt" fill="#000000" >2</text>
    </g>
  </g>
  <g transform="translate(64.120,256.688)">
    <g transform="rotate(-0.0)">
      <text x="0.000" y="0.000" font-family="Helvetica" text-anchor="end" font-size="25pt" fill="#000000" >3</text>
    </g>
  </g>
  <g transform="translate(64.120,213.900)">
    <g transform="rotate(-0.0)">
      <text x="0.000" y="0.000" font-family="Helvetica" text-anchor="end" font-size="25pt" fill="#000000" >4</text>
    </g>
  </g>
  <g transform="translate(64.120,171.113)">
    <g transform="rotate(-0.0)">
      <text x="0.000" y="0.000" font-family="Helvetica" text-anchor="end" font-size="25pt" fill="#000000" >5</text>
    </g>
  </g>
  <g transform="translate(64.120,128.325)">
    <g transform="rotate(-0.0)">
      <text x="0.000" y="0.000" font-family="Helvetica" text-anchor="end" font-size="25pt" fill="#000000" >6</text>
    </g>
  </g>
  <g transform="translate(64.120,85.538)">
    <g transform="rotate(-0.0)">
      <text x="0.000" y="0.000" font-family="Helvetica" text-anchor="end" font-size="25pt" fill="#000000" >7</text>
    </g>
  </g>
  <g transform="translate(64.120,42.750)">
    <g transform="rotate(-0.0)">
      <text x="0.000" y="0.000" font-family="Helvetica" text-anchor="end" font-size="25pt" fill="#000000" >8</text>
    </g>
  </g>
      <polyline fill="none" stroke="#000000" stroke-width="1.0pt" stroke-dasharray="none" points="72.800,373.800 72.800,370.377 "/>
      <polyline fill="none" stroke="#000000" stroke-width="1.0pt" stroke-dasharray="none" points="72.800,373.800 72.800,373.800 "/>
    </g>
  </g>
  <g id ="ID000010">
  <clipPath id="ID000011">
    <rect x="79.250" y="38.750" width="90.500" height="51.250"/>
  </clipPath>
      <polygon fill="#ffffff" fill-opacity="1.00" stroke="none" stroke-width="1.0pt" stroke-opacity="1.00" stroke-dasharray="none" points="79.250,90.000 169.750,90.000 169.750,38.750 79.250,38.750 "/>
      <polygon fill="#ffffff" fill-opacity="1.00" stroke="none" stroke-width="1.0pt" stroke-opacity="1.00" stroke-dasharray="none" points="79.250,38.750 169.750,38.750 169.750,38.750 79.250,38.750 "/>
      <polygon fill="#ffffff" fill-opacity="1.00" stroke="none" stroke-width="1.0pt" stroke-opacity="1.00" stroke-dasharray="none" points="79.250,90.000 79.250,90.000 79.250,38.750 79.250,38.750 "/>
    <g>
<g id="ID000012" >
  <g transform="translate(129.473,60.551)">
    <g transform="rotate(-0.0)">
      <text x="0.000" y="0.000" font-family="Helvetica" text-anchor="start" font-size="25pt" fill="#000000" >slra</text>
    </g>
  </g>
</g>
<g id="ID000013" clip-path="url(#ID000011)" >
      <polyline fill="none" stroke="#0000ff" stroke-width="2.0pt" stroke-dasharray="none" points="86.750,48.750 124.250,48.750 "/>
<g>
</g>
</g>
<g id="ID000014" clip-path="url(#ID000011)" >
<g>
</g>
</g>
<g id="ID000015" >
  <g transform="translate(129.473,76.630)">
    <g transform="rotate(-0.0)">
      <text x="0.000" y="0.000" font-family="Helvetica" text-anchor="start" font-size="25pt" fill="#000000" >nucnrm</text>
    </g>
  </g>
</g>
<g id="ID000016" clip-path="url(#ID000011)" >
      <polyline fill="none" stroke="#ff0000" stroke-width="2.0pt" stroke-dasharray="none" points="86.750,64.375 124.250,64.375 "/>
<g>
</g>
</g>
<g id="ID000017" clip-path="url(#ID000011)" >
<g>
</g>
</g>
<g id="ID000018" >
  <g transform="translate(129.473,92.708)">
    <g transform="rotate(-0.0)">
      <text x="0.000" y="0.000" font-family="Helvetica" text-anchor="start" font-size="25pt" fill="#000000" >lp</text>
    </g>
  </g>
</g>
<g id="ID000019" clip-path="url(#ID000011)" >
      <polyline fill="none" stroke="#000000" stroke-width="2.0pt" stroke-dasharray="none" points="86.750,80.000 124.250,80.000 "/>
<g>
</g>
</g>
<g id="ID000020" clip-path="url(#ID000011)" >
<g>
</g>
</g>
<g id="ID000021" >
</g>
<g id="ID000022" >
</g>
<g id="ID000023" >
</g>
    </g>
    <g>
      <polyline fill="none" stroke="#000000" stroke-width="1.0pt" stroke-dasharray="none" points="79.250,90.000 169.750,90.000 "/>
      <polyline fill="none" stroke="#000000" stroke-width="1.0pt" stroke-dasharray="none" points="79.250,38.750 169.750,38.750 "/>
      <polyline fill="none" stroke="#000000" stroke-width="1.0pt" stroke-dasharray="none" points="79.250,90.000 79.250,38.750 "/>
      <polyline fill="none" stroke="#000000" stroke-width="1.0pt" stroke-dasharray="none" points="169.750,90.000 169.750,38.750 "/>
      <polyline fill="none" stroke="#000000" stroke-width="1.0pt" stroke-dasharray="none" points="79.250,90.000 79.250,89.488 "/>
      <polyline fill="none" stroke="#000000" stroke-width="1.0pt" stroke-dasharray="none" points="79.250,90.000 79.250,90.000 "/>
    </g>
  </g>
  </g>
</svg>
